<?xml version="1.0" encoding="UTF-8" standalone="no"?>
<!DOCTYPE svg PUBLIC "-//W3C//DTD SVG 1.1//EN" "http://www.w3.org/Graphics/SVG/1.1/DTD/svg11.dtd">
<svg width="100%" height="100%" viewBox="0 0 573 726" version="1.1" xmlns="http://www.w3.org/2000/svg" xmlns:xlink="http://www.w3.org/1999/xlink" xml:space="preserve" xmlns:serif="http://www.serif.com/" style="fill-rule:evenodd;clip-rule:evenodd;stroke-linejoin:round;stroke-miterlimit:2;">
    <g transform="matrix(1,0,0,1,-2548.733442,-4077.199321)">
        <g transform="matrix(0.942761,0,0,0.809524,0,2974)">
            <g id="brandmark" transform="matrix(1.067722,0,0,1.243455,2250.310294,734.770599)">
                <g transform="matrix(1.319585,0,0,1.53182,385.823953,494.833313)">
                    <g id="mark-yellow" serif:id="mark yellow">
                        <path d="M459.077,236.533C459.641,244.224 470.556,321.599 409.059,399.142C390.778,422.194 334.838,476.7 244.499,476.702C161.642,476.703 161.622,477.554 154.502,476.484C139.088,474.169 138.918,454.943 151.589,449.716C178.791,438.494 207.837,429.378 271.131,382.016C289.608,368.19 334.903,329.646 338.632,318.548C344.525,301.007 326.282,292.427 313.836,302.894C267.336,342.001 258.134,350.315 250.591,344.382C241.663,337.359 254.184,327.41 266.343,314.358C287.869,291.254 320.318,253.003 324.124,244.321C331.766,226.886 313.244,208.572 293.911,229.877C271.736,254.316 272.315,254.739 250.035,279.081C225.612,305.764 223.681,305.758 220.498,305.749C218.277,305.743 206.779,302.549 215.86,289.761C284.54,193.047 280.521,190.587 280.764,188.531C282.438,174.376 261.617,156.259 243.967,182.801C240.565,187.918 184.208,272.123 180.519,275.521C176.052,279.636 161.503,279.378 169.076,262.315C208.506,173.476 214.459,171.898 206.156,159.745C204.94,157.966 186.527,140.306 173.028,166.256C129.782,249.396 117.045,288.539 110.413,293.379C103.14,298.686 89.15,295.194 90.65,281.517C93.172,258.51 101.06,236.438 79.504,232.477C71.747,231.052 61.294,236.329 59.252,247.451C53.828,276.995 52.87,304.682 47.126,309.07C42.26,312.787 29.675,313.865 29.555,298.501C28.891,213.977 29.514,97.94 29.607,80.501C29.722,59.067 44.719,44.653 67.5,44.607C260.773,44.219 262.648,44.496 279.421,46.974C382.952,62.271 450.147,144.258 459.077,236.533Z" style="fill:rgb(236,215,84);"/>
                    </g>
                </g>
                <g transform="matrix(1.319585,0,0,1.53182,385.823953,465.905504)">
                    <g id="mark-light-blue" serif:id="mark light blue">
                        <path d="M459.077,236.533C459.641,244.224 470.556,321.599 409.059,399.142C390.778,422.194 334.838,476.7 244.499,476.702C161.642,476.703 161.622,477.554 154.502,476.484C139.088,474.169 138.918,454.943 151.589,449.716C178.791,438.494 207.837,429.378 271.131,382.016C289.608,368.19 334.903,329.646 338.632,318.548C344.525,301.007 326.282,292.427 313.836,302.894C267.336,342.001 258.134,350.315 250.591,344.382C241.663,337.359 254.184,327.41 266.343,314.358C287.869,291.254 320.318,253.003 324.124,244.321C331.766,226.886 313.244,208.572 293.911,229.877C271.736,254.316 272.315,254.739 250.035,279.081C225.612,305.764 223.681,305.758 220.498,305.749C218.277,305.743 206.779,302.549 215.86,289.761C284.54,193.047 280.521,190.587 280.764,188.531C282.438,174.376 261.617,156.259 243.967,182.801C240.565,187.918 184.208,272.123 180.519,275.521C176.052,279.636 161.503,279.378 169.076,262.315C208.506,173.476 214.459,171.898 206.156,159.745C204.94,157.966 186.527,140.306 173.028,166.256C129.782,249.396 117.045,288.539 110.413,293.379C103.14,298.686 89.15,295.194 90.65,281.517C93.172,258.51 101.06,236.438 79.504,232.477C71.747,231.052 61.294,236.329 59.252,247.451C53.828,276.995 52.87,304.682 47.126,309.07C42.26,312.787 29.675,313.865 29.555,298.501C28.891,213.977 29.514,97.94 29.607,80.501C29.722,59.067 44.719,44.653 67.5,44.607C260.773,44.219 262.648,44.496 279.421,46.974C382.952,62.271 450.147,144.258 459.077,236.533Z" style="fill:rgb(51,153,255);"/>
                    </g>
                </g>
                <g transform="matrix(1.319585,0,0,1.53182,385.823953,436.938319)">
                    <g id="mark-blue" serif:id="mark blue">
                        <path d="M459.077,236.533C459.641,244.224 470.556,321.599 409.059,399.142C390.778,422.194 334.838,476.7 244.499,476.702C161.642,476.703 161.622,477.554 154.502,476.484C139.088,474.169 138.918,454.943 151.589,449.716C178.791,438.494 207.837,429.378 271.131,382.016C289.608,368.19 334.903,329.646 338.632,318.548C344.525,301.007 326.282,292.427 313.836,302.894C267.336,342.001 258.134,350.315 250.591,344.382C241.663,337.359 254.184,327.41 266.343,314.358C287.869,291.254 320.318,253.003 324.124,244.321C331.766,226.886 313.244,208.572 293.911,229.877C271.736,254.316 272.315,254.739 250.035,279.081C225.612,305.764 223.681,305.758 220.498,305.749C218.277,305.743 206.779,302.549 215.86,289.761C284.54,193.047 280.521,190.587 280.764,188.531C282.438,174.376 261.617,156.259 243.967,182.801C240.565,187.918 184.208,272.123 180.519,275.521C176.052,279.636 161.503,279.378 169.076,262.315C208.506,173.476 214.459,171.898 206.156,159.745C204.94,157.966 186.527,140.306 173.028,166.256C129.782,249.396 117.045,288.539 110.413,293.379C103.14,298.686 89.15,295.194 90.65,281.517C93.172,258.51 101.06,236.438 79.504,232.477C71.747,231.052 61.294,236.329 59.252,247.451C53.828,276.995 52.87,304.682 47.126,309.07C42.26,312.787 29.675,313.865 29.555,298.501C28.891,213.977 29.514,97.94 29.607,80.501C29.722,59.067 44.719,44.653 67.5,44.607C260.773,44.219 262.648,44.496 279.421,46.974C382.952,62.271 450.147,144.258 459.077,236.533Z" style="fill:rgb(39,39,155);"/>
                    </g>
                </g>
            </g>
        </g>
    </g>
</svg>
