<?xml version="1.0" encoding="UTF-8" standalone="no"?>
<!DOCTYPE svg PUBLIC "-//W3C//DTD SVG 1.1//EN" "http://www.w3.org/Graphics/SVG/1.1/DTD/svg11.dtd">
<svg width="100%" height="100%" viewBox="0 0 825 617" version="1.1" xmlns="http://www.w3.org/2000/svg" xmlns:xlink="http://www.w3.org/1999/xlink" xml:space="preserve" xmlns:serif="http://www.serif.com/" style="fill-rule:evenodd;clip-rule:evenodd;stroke-linecap:round;stroke-linejoin:round;stroke-miterlimit:1.5;">
    <g transform="matrix(1,0,0,1,-4157.788931,-1479.371327)">
        <g transform="matrix(1.907102,0,0,1,24.132698,0)">
            <g id="comments-empty-state" serif:id="comments empty state" transform="matrix(0.718081,0,0,1,1471.866636,180.147549)">
                <g id="bubble" transform="matrix(0.981969,0,0,1.209466,-1737.53714,869.110357)">
                    <path d="M2927.786,782.351C2831.27,775.31 2642.788,573.128 2847.934,420.382C3089.653,240.406 3249.253,479.41 3268.317,606.173C3279.616,681.306 3367.455,650.823 3369.163,721.586C3370.629,782.351 3287.32,781.899 3236.307,781.457C3140.904,780.631 3141.984,869.281 3071.478,865.001C3003.578,860.879 3038.568,790.432 2927.786,782.351Z" style="fill:rgb(51,153,255);fill-opacity:0.1;"/>
                </g>
                <g transform="matrix(2.469496,0,0,2.893381,1082.235338,1405.006795)">
                    <path d="M141.5,2.034C143.415,2.073 152.929,0.433 161.512,9.489C168.556,16.923 167.587,18.207 167.587,92.5C167.587,112.519 170.439,133.36 139.5,133.462C48.331,133.761 47.069,131.117 42.091,136.091C13.145,165.014 13.575,165.668 10.297,167.031C6.836,168.47 2.512,165.93 2.146,162.564C1.904,160.339 2.091,45.252 2.034,28.5C2.009,21.121 1.376,17.466 8.166,9.186C15.309,0.478 26.274,2.034 44.5,2.034C76.833,2.034 109.167,2.034 141.5,2.034ZM84.5,13.966C94.86,14.144 136.938,13.978 142.502,14.035C157.75,14.193 155.212,25.974 155.212,49.5C155.212,113.097 155.661,113.716 152.398,117.41C148.289,122.062 141.57,121.141 139.5,121.141C40.451,121.142 40.123,120.959 38.432,122.416C27.934,131.456 18.462,142.045 16.839,143.86C16.677,144.041 13.779,147.28 13.853,144.456C14.061,136.518 14.035,136.613 14.035,104.5C14.035,21.941 13.614,21.249 16.869,17.835C21.165,13.329 22.104,13.966 84.5,13.966Z" style="fill:rgb(38,38,155);fill-opacity:1;"/>
                </g>
                <g id="spark-yellow" serif:id="spark yellow" transform="matrix(1.145598,0,0,1.145598,-1296.48474,867.181906)">
                    <g transform="matrix(0.730218,0,0,1,-17.622124,-1)">
                        <path d="M2760,548L2827,548" style="fill:none;stroke:rgb(236,215,84);stroke-width:21.82px;"/>
                    </g>
                    <g transform="matrix(0.641211,0.478459,-0.349379,0.87811,426.919297,-1327.779924)">
                        <path d="M2760,548L2827,548" style="fill:none;stroke:rgb(236,215,84);stroke-width:21.82px;"/>
                    </g>
                    <g transform="matrix(0.478642,0.755214,-0.55147,0.655479,1016.933382,-2020.219382)">
                        <path d="M2760,548L2827,548" style="fill:none;stroke:rgb(236,215,84);stroke-width:21.82px;"/>
                    </g>
                </g>
            </g>
        </g>
    </g>
</svg>
