<?xml version="1.0" encoding="UTF-8" standalone="no"?>
<!DOCTYPE svg PUBLIC "-//W3C//DTD SVG 1.1//EN" "http://www.w3.org/Graphics/SVG/1.1/DTD/svg11.dtd">
<svg width="100%" height="100%" viewBox="0 0 2821 439" version="1.1" xmlns="http://www.w3.org/2000/svg" xmlns:xlink="http://www.w3.org/1999/xlink" xml:space="preserve" xmlns:serif="http://www.serif.com/" style="fill-rule:evenodd;clip-rule:evenodd;stroke-linecap:round;stroke-linejoin:round;stroke-miterlimit:1.5;">
    <g transform="matrix(1,0,0,1,-3611.087367,-3294.765697)">
        <g transform="matrix(0.942761,0,0,0.809524,3414,2961)">
            <g id="logo" transform="matrix(1.4526,0,0,1.724369,21.541513,-69.176471)">
                <g transform="matrix(1.385785,0,0,1.359514,778.548419,-307.163245)">
                    <path d="M624.483,587.75C617.319,587.75 611.655,585.667 607.49,581.502C603.325,577.337 601.243,571.673 601.243,564.51L601.243,435.315C603.076,434.982 605.991,434.524 609.989,433.941C613.988,433.358 617.819,433.066 621.484,433.066C625.316,433.066 628.69,433.358 631.605,433.941C634.52,434.524 636.978,435.565 638.977,437.065C640.976,438.564 642.475,440.646 643.475,443.312C644.474,445.977 644.974,449.476 644.974,453.807L644.974,552.515L702.199,552.515C703.366,554.347 704.449,556.805 705.448,559.887C706.448,562.969 706.947,566.176 706.947,569.508C706.947,576.171 705.531,580.878 702.699,583.626C699.867,586.375 696.119,587.75 691.454,587.75L624.483,587.75Z" style="fill:white;"/>
                    <path d="M859.132,562.261C859.132,567.425 858.216,571.257 856.383,573.756C854.55,576.255 851.635,578.67 847.637,581.003C845.304,582.335 842.389,583.626 838.891,584.876C835.392,586.125 831.56,587.208 827.396,588.125C823.231,589.041 818.858,589.749 814.276,590.249C809.695,590.748 805.155,590.998 800.657,590.998C788.662,590.998 777.417,589.374 766.922,586.125C756.426,582.877 747.305,577.962 739.558,571.382C731.812,564.801 725.689,556.596 721.191,546.767C716.693,536.938 714.444,525.526 714.444,512.532C714.444,498.871 716.901,486.96 721.816,476.797C726.731,466.635 733.228,458.181 741.308,451.433C749.387,444.686 758.633,439.647 769.046,436.315C779.458,432.983 790.162,431.317 801.157,431.317C816.983,431.317 829.52,433.858 838.766,438.939C848.012,444.02 852.635,450.642 852.635,458.805C852.635,463.137 851.552,466.885 849.386,470.05C847.22,473.216 844.721,475.715 841.889,477.547C837.724,475.048 832.518,472.591 826.271,470.175C820.024,467.76 812.985,466.552 805.155,466.552C791.161,466.552 780.041,470.55 771.794,478.547C763.548,486.543 759.425,497.622 759.425,511.782C759.425,519.446 760.549,526.068 762.798,531.649C765.047,537.23 768.088,541.811 771.919,545.393C775.751,548.975 780.166,551.64 785.164,553.389C790.162,555.139 795.493,556.013 801.157,556.013C804.822,556.013 808.071,555.68 810.903,555.014C813.735,554.347 815.9,553.598 817.4,552.765L817.4,529.275L790.661,529.275C789.662,527.442 788.704,525.027 787.788,522.028C786.871,519.029 786.413,515.864 786.413,512.532C786.413,506.535 787.788,502.203 790.536,499.538C793.285,496.872 796.825,495.539 801.157,495.539L843.389,495.539C848.386,495.539 852.26,496.914 855.009,499.663C857.757,502.411 859.132,506.285 859.132,511.283L859.132,562.261Z" style="fill:white;"/>
                    <path d="M944.595,505.785C951.592,505.785 956.965,504.161 960.713,500.912C964.461,497.664 966.336,492.707 966.336,486.044C966.336,479.713 964.378,474.84 960.463,471.425C956.548,468.01 950.842,466.302 943.346,466.302C940.68,466.302 938.473,466.344 936.723,466.427C934.974,466.51 933.183,466.719 931.351,467.052L931.351,505.785L944.595,505.785ZM931.601,586C929.768,586.5 926.894,587 922.979,587.5C919.064,588 915.191,588.249 911.359,588.249C907.528,588.249 904.154,587.958 901.239,587.375C898.323,586.792 895.866,585.751 893.867,584.251C891.868,582.752 890.368,580.669 889.369,578.004C888.369,575.338 887.869,571.84 887.869,567.508L887.869,449.809C887.869,446.311 888.827,443.603 890.743,441.688C892.659,439.772 895.283,438.231 898.615,437.065C904.279,435.065 910.735,433.608 917.981,432.692C925.228,431.775 932.517,431.317 939.847,431.317C962.837,431.317 980.413,436.232 992.574,446.061C1004.736,455.89 1010.816,469.217 1010.816,486.044C1010.816,494.207 1009.525,501.578 1006.943,508.159C1004.361,514.739 1000.529,520.404 995.448,525.152C990.367,529.9 983.953,533.565 976.206,536.147C968.46,538.729 959.505,540.02 949.343,540.02L931.601,540.02L931.601,586Z" style="fill:white;"/>
                </g>
                <g transform="matrix(1.165153,0,0,1.143065,-341.864255,-179.242315)">
                    <path d="M596.995,431.817C596.995,425.486 599.119,420.155 603.367,415.824C607.615,411.492 613.238,409.327 620.235,409.327C627.232,409.327 632.854,411.492 637.103,415.824C641.351,420.155 643.475,425.486 643.475,431.817C643.475,438.147 641.351,443.479 637.103,447.81C632.854,452.141 627.232,454.307 620.235,454.307C613.238,454.307 607.615,452.141 603.367,447.81C599.119,443.479 596.995,438.147 596.995,431.817ZM641.476,586.75C639.643,587.083 636.936,587.541 633.354,588.125C629.772,588.708 626.149,588.999 622.484,588.999C618.819,588.999 615.529,588.749 612.613,588.249C609.698,587.75 607.24,586.75 605.241,585.251C603.242,583.751 601.701,581.711 600.618,579.128C599.535,576.546 598.994,573.173 598.994,569.008L598.994,467.302C600.827,466.968 603.534,466.51 607.115,465.927C610.697,465.344 614.321,465.053 617.986,465.053C621.651,465.053 624.941,465.302 627.857,465.802C630.772,466.302 633.229,467.302 635.228,468.801C637.227,470.3 638.768,472.341 639.851,474.923C640.934,477.506 641.476,480.879 641.476,485.044L641.476,586.75Z" style="fill:white;"/>
                    <path d="M736.935,495.29C732.77,495.29 728.813,495.956 725.065,497.289C721.316,498.621 718.068,500.579 715.319,503.161C712.57,505.743 710.363,508.95 708.697,512.782C707.031,516.614 706.198,521.112 706.198,526.276C706.198,536.605 709.155,544.352 715.069,549.516C720.983,554.681 728.188,557.263 736.685,557.263C741.682,557.263 746.014,556.68 749.679,555.514C753.344,554.347 756.593,553.098 759.425,551.765C762.757,554.098 765.256,556.638 766.922,559.387C768.588,562.136 769.421,565.426 769.421,569.258C769.421,576.088 766.172,581.377 759.675,585.126C753.178,588.874 744.181,590.748 732.686,590.748C722.191,590.748 712.695,589.207 704.199,586.125C695.702,583.043 688.414,578.712 682.333,573.131C676.252,567.55 671.546,560.845 668.214,553.015C664.882,545.185 663.216,536.522 663.216,527.026C663.216,516.031 665.007,506.41 668.589,498.163C672.171,489.917 677.044,483.128 683.208,477.797C689.372,472.466 696.494,468.468 704.573,465.802C712.653,463.137 721.191,461.804 730.187,461.804C742.182,461.804 751.428,463.97 757.925,468.301C764.423,472.633 767.671,478.214 767.671,485.044C767.671,488.209 766.922,491.166 765.422,493.915C763.923,496.664 762.174,499.038 760.175,501.037C757.342,499.704 753.927,498.413 749.929,497.164C745.931,495.914 741.599,495.29 736.935,495.29Z" style="fill:white;"/>
                    <path d="M789.662,431.817C789.662,425.486 791.786,420.155 796.034,415.824C800.282,411.492 805.905,409.327 812.902,409.327C819.899,409.327 825.521,411.492 829.77,415.824C834.018,420.155 836.142,425.486 836.142,431.817C836.142,438.147 834.018,443.479 829.77,447.81C825.521,452.141 819.899,454.307 812.902,454.307C805.905,454.307 800.282,452.141 796.034,447.81C791.786,443.479 789.662,438.147 789.662,431.817ZM834.143,586.75C832.31,587.083 829.603,587.541 826.021,588.125C822.439,588.708 818.816,588.999 815.151,588.999C811.486,588.999 808.195,588.749 805.28,588.249C802.365,587.75 799.907,586.75 797.908,585.251C795.909,583.751 794.368,581.711 793.285,579.128C792.202,576.546 791.661,573.173 791.661,569.008L791.661,467.302C793.493,466.968 796.201,466.51 799.782,465.927C803.364,465.344 806.988,465.053 810.653,465.053C814.318,465.053 817.608,465.302 820.523,465.802C823.439,466.302 825.896,467.302 827.895,468.801C829.894,470.3 831.435,472.341 832.518,474.923C833.601,477.506 834.143,480.879 834.143,485.044L834.143,586.75Z" style="fill:white;"/>
                    <path d="M986.827,526.276C986.827,536.605 985.244,545.809 982.079,553.889C978.914,561.969 974.457,568.758 968.71,574.255C962.962,579.753 956.09,583.918 948.094,586.75C940.097,589.582 931.184,590.998 921.355,590.998C911.526,590.998 902.613,589.499 894.617,586.5C886.62,583.502 879.748,579.212 874,573.631C868.253,568.05 863.797,561.261 860.631,553.265C857.466,545.268 855.883,536.272 855.883,526.276C855.883,516.447 857.466,507.534 860.631,499.538C863.797,491.541 868.253,484.752 874,479.171C879.748,473.591 886.62,469.301 894.617,466.302C902.613,463.303 911.526,461.804 921.355,461.804C931.184,461.804 940.097,463.345 948.094,466.427C956.09,469.509 962.962,473.84 968.71,479.421C974.457,485.002 978.914,491.791 982.079,499.788C985.244,507.784 986.827,516.614 986.827,526.276ZM899.365,526.276C899.365,536.438 901.322,544.227 905.237,549.641C909.152,555.055 914.608,557.763 921.605,557.763C928.602,557.763 933.975,555.014 937.723,549.516C941.471,544.019 943.346,536.272 943.346,526.276C943.346,516.28 941.43,508.575 937.598,503.161C933.766,497.747 928.352,495.04 921.355,495.04C914.358,495.04 908.944,497.747 905.112,503.161C901.28,508.575 899.365,516.28 899.365,526.276Z" style="fill:white;"/>
                    <path d="M1084.535,510.033C1084.535,504.869 1083.077,501.079 1080.162,498.663C1077.246,496.247 1073.29,495.04 1068.292,495.04C1064.96,495.04 1061.67,495.456 1058.421,496.289C1055.172,497.122 1052.382,498.372 1050.05,500.037L1050.05,586.75C1048.384,587.25 1045.76,587.75 1042.178,588.249C1038.596,588.749 1034.889,588.999 1031.058,588.999C1027.393,588.999 1024.102,588.749 1021.187,588.249C1018.272,587.75 1015.814,586.75 1013.815,585.251C1011.816,583.751 1010.275,581.711 1009.192,579.128C1008.109,576.546 1007.568,573.173 1007.568,569.008L1007.568,494.04C1007.568,489.542 1008.526,485.877 1010.442,483.045C1012.357,480.213 1014.981,477.63 1018.313,475.298C1023.977,471.3 1031.099,468.051 1039.679,465.552C1048.259,463.053 1057.796,461.804 1068.292,461.804C1087.117,461.804 1101.611,465.927 1111.773,474.174C1121.935,482.42 1127.016,493.873 1127.016,508.534L1127.016,586.75C1125.35,587.25 1122.727,587.75 1119.145,588.249C1115.563,588.749 1111.856,588.999 1108.025,588.999C1104.359,588.999 1101.069,588.749 1098.154,588.249C1095.238,587.75 1092.781,586.75 1090.782,585.251C1088.783,583.751 1087.242,581.711 1086.159,579.128C1085.076,576.546 1084.535,573.173 1084.535,569.008L1084.535,510.033Z" style="fill:white;"/>
                    <path d="M1205.233,560.012C1208.065,560.012 1211.188,559.72 1214.604,559.137C1218.019,558.554 1220.559,557.763 1222.225,556.763L1222.225,536.772L1204.233,538.271C1199.568,538.604 1195.737,539.604 1192.738,541.27C1189.739,542.936 1188.24,545.435 1188.24,548.766C1188.24,552.098 1189.531,554.806 1192.113,556.888C1194.696,558.97 1199.069,560.012 1205.233,560.012ZM1203.234,461.804C1212.23,461.804 1220.434,462.72 1227.848,464.553C1235.261,466.385 1241.592,469.176 1246.84,472.924C1252.087,476.673 1256.127,481.421 1258.96,487.168C1261.792,492.916 1263.208,499.704 1263.208,507.534L1263.208,563.51C1263.208,567.842 1262,571.382 1259.584,574.131C1257.169,576.879 1254.295,579.253 1250.963,581.252C1240.134,587.75 1224.891,590.998 1205.233,590.998C1196.403,590.998 1188.448,590.165 1181.368,588.499C1174.288,586.833 1168.207,584.334 1163.126,581.003C1158.045,577.671 1154.13,573.423 1151.381,568.258C1148.632,563.094 1147.258,557.096 1147.258,550.266C1147.258,538.771 1150.673,529.941 1157.503,523.777C1164.334,517.613 1174.912,513.782 1189.24,512.282L1221.975,508.784L1221.975,507.034C1221.975,502.203 1219.851,498.746 1215.603,496.664C1211.355,494.581 1205.233,493.54 1197.236,493.54C1190.906,493.54 1184.742,494.207 1178.744,495.539C1172.747,496.872 1167.332,498.538 1162.501,500.537C1160.335,499.038 1158.503,496.747 1157.003,493.665C1155.504,490.583 1154.754,487.376 1154.754,484.044C1154.754,479.713 1155.796,476.256 1157.878,473.674C1159.961,471.092 1163.167,468.884 1167.499,467.052C1172.33,465.219 1178.036,463.886 1184.617,463.053C1191.197,462.22 1197.403,461.804 1203.234,461.804ZM1212.23,401.08C1220.893,401.08 1227.182,402.746 1231.097,406.078C1235.012,409.41 1236.969,413.408 1236.969,418.073C1236.969,422.404 1235.803,426.028 1233.471,428.943C1231.138,431.859 1227.307,434.732 1221.975,437.564L1189.739,454.557C1184.742,454.057 1180.493,452.058 1176.995,448.56C1173.496,445.061 1171.747,441.313 1171.747,437.315C1171.747,435.315 1172.247,433.316 1173.246,431.317C1174.246,429.318 1175.912,427.485 1178.244,425.819L1212.23,401.08Z" style="fill:white;"/>
                    <path d="M1331.678,586.75C1330.012,587.25 1327.388,587.75 1323.807,588.249C1320.225,588.749 1316.518,588.999 1312.686,588.999C1309.021,588.999 1305.731,588.749 1302.816,588.249C1299.9,587.75 1297.443,586.75 1295.444,585.251C1293.445,583.751 1291.904,581.711 1290.821,579.128C1289.738,576.546 1289.196,573.173 1289.196,569.008L1289.196,494.04C1289.196,490.208 1289.905,486.918 1291.321,484.169C1292.737,481.421 1294.777,478.963 1297.443,476.797C1300.108,474.632 1303.399,472.674 1307.314,470.925C1311.229,469.176 1315.435,467.635 1319.933,466.302C1324.431,464.969 1329.096,463.928 1333.927,463.178C1338.758,462.429 1343.59,462.054 1348.421,462.054C1356.418,462.054 1362.748,463.595 1367.413,466.677C1372.077,469.759 1374.41,474.798 1374.41,481.795C1374.41,484.128 1374.077,486.418 1373.41,488.667C1372.744,490.916 1371.911,492.957 1370.911,494.79C1367.413,494.79 1363.831,494.956 1360.166,495.29C1356.501,495.623 1352.919,496.123 1349.421,496.789C1345.922,497.455 1342.632,498.163 1339.55,498.913C1336.468,499.663 1333.844,500.537 1331.678,501.537L1331.678,586.75Z" style="fill:white;"/>
                    <path d="M1390.903,431.817C1390.903,425.486 1393.027,420.155 1397.275,415.824C1401.523,411.492 1407.146,409.327 1414.143,409.327C1421.14,409.327 1426.762,411.492 1431.01,415.824C1435.259,420.155 1437.383,425.486 1437.383,431.817C1437.383,438.147 1435.259,443.479 1431.01,447.81C1426.762,452.141 1421.14,454.307 1414.143,454.307C1407.146,454.307 1401.523,452.141 1397.275,447.81C1393.027,443.479 1390.903,438.147 1390.903,431.817ZM1435.383,586.75C1433.551,587.083 1430.844,587.541 1427.262,588.125C1423.68,588.708 1420.057,588.999 1416.392,588.999C1412.727,588.999 1409.436,588.749 1406.521,588.249C1403.606,587.75 1401.148,586.75 1399.149,585.251C1397.15,583.751 1395.609,581.711 1394.526,579.128C1393.443,576.546 1392.902,573.173 1392.902,569.008L1392.902,467.302C1394.734,466.968 1397.442,466.51 1401.023,465.927C1404.605,465.344 1408.229,465.053 1411.894,465.053C1415.559,465.053 1418.849,465.302 1421.764,465.802C1424.68,466.302 1427.137,467.302 1429.136,468.801C1431.135,470.3 1432.676,472.341 1433.759,474.923C1434.842,477.506 1435.383,480.879 1435.383,485.044L1435.383,586.75Z" style="fill:white;"/>
                    <path d="M1588.068,526.276C1588.068,536.605 1586.485,545.809 1583.32,553.889C1580.154,561.969 1575.698,568.758 1569.95,574.255C1564.203,579.753 1557.331,583.918 1549.334,586.75C1541.338,589.582 1532.425,590.998 1522.596,590.998C1512.767,590.998 1503.854,589.499 1495.857,586.5C1487.861,583.502 1480.989,579.212 1475.241,573.631C1469.494,568.05 1465.037,561.261 1461.872,553.265C1458.707,545.268 1457.124,536.272 1457.124,526.276C1457.124,516.447 1458.707,507.534 1461.872,499.538C1465.037,491.541 1469.494,484.752 1475.241,479.171C1480.989,473.591 1487.861,469.301 1495.857,466.302C1503.854,463.303 1512.767,461.804 1522.596,461.804C1532.425,461.804 1541.338,463.345 1549.334,466.427C1557.331,469.509 1564.203,473.84 1569.95,479.421C1575.698,485.002 1580.154,491.791 1583.32,499.788C1586.485,507.784 1588.068,516.614 1588.068,526.276ZM1500.605,526.276C1500.605,536.438 1502.563,544.227 1506.478,549.641C1510.393,555.055 1515.849,557.763 1522.846,557.763C1529.843,557.763 1535.215,555.014 1538.964,549.516C1542.712,544.019 1544.586,536.272 1544.586,526.276C1544.586,516.28 1542.671,508.575 1538.839,503.161C1535.007,497.747 1529.593,495.04 1522.596,495.04C1515.599,495.04 1510.185,497.747 1506.353,503.161C1502.521,508.575 1500.605,516.28 1500.605,526.276Z" style="fill:white;"/>
                </g>
                <g id="mark" transform="matrix(0.314054,0,0,0.3081,16.242068,123.612722)">
                    <g transform="matrix(1.403228,0,0,1.628917,347.333778,432.621066)">
                        <g id="mark-blue" serif:id="mark blue">
                            <path d="M459.077,236.533C459.641,244.224 470.556,321.599 409.059,399.142C390.778,422.194 334.838,476.7 244.499,476.702C161.642,476.703 161.622,477.554 154.502,476.484C139.088,474.169 138.918,454.943 151.589,449.716C178.791,438.494 207.837,429.378 271.131,382.016C289.608,368.19 334.903,329.646 338.632,318.548C344.525,301.007 326.282,292.427 313.836,302.894C267.336,342.001 258.134,350.315 250.591,344.382C241.663,337.359 254.184,327.41 266.343,314.358C287.869,291.254 320.318,253.003 324.124,244.321C331.766,226.886 313.244,208.572 293.911,229.877C271.736,254.316 272.315,254.739 250.035,279.081C225.612,305.764 223.681,305.758 220.498,305.749C218.277,305.743 206.779,302.549 215.86,289.761C284.54,193.047 280.521,190.587 280.764,188.531C282.438,174.376 261.617,156.259 243.967,182.801C240.565,187.918 184.208,272.123 180.519,275.521C176.052,279.636 161.503,279.378 169.076,262.315C208.506,173.476 214.459,171.898 206.156,159.745C204.94,157.966 186.527,140.306 173.028,166.256C129.782,249.396 117.045,288.539 110.413,293.379C103.14,298.686 89.15,295.194 90.65,281.517C93.172,258.51 101.06,236.438 79.504,232.477C71.747,231.052 61.294,236.329 59.252,247.451C53.828,276.995 52.87,304.682 47.126,309.07C42.26,312.787 29.675,313.865 29.555,298.501C28.891,213.977 29.514,97.94 29.607,80.501C29.722,59.067 44.719,44.653 67.5,44.607C260.773,44.219 262.648,44.496 279.421,46.974C382.952,62.271 450.147,144.258 459.077,236.533Z" style="fill:white;"/>
                        </g>
                    </g>
                </g>
                <g transform="matrix(0.730216,-0.001538,0.001567,0.716373,-5.711409,-2037.072673)">
                    <path d="M189.305,3632C189.305,3632 1583.634,3687.617 2135.907,3617.178C2251.4,3602.448 2878.787,3715.773 2984.502,3638" style="fill:none;stroke:rgb(51,153,255);stroke-width:25px;"/>
                </g>
                <g transform="matrix(0.730216,-0.001538,0.001567,0.716373,-5.711409,-2049.967418)">
                    <path d="M189.305,3632C189.305,3632 1583.634,3687.617 2135.907,3617.178C2251.4,3602.448 2878.787,3715.773 2984.502,3638" style="fill:none;stroke:rgb(236,215,84);stroke-width:25px;"/>
                </g>
                <g transform="matrix(0.730216,-0.001538,0.001567,0.716373,-5.711409,-2062.862164)">
                    <path d="M189.305,3632C189.305,3632 1583.634,3687.617 2135.907,3617.178C2251.4,3602.448 2878.787,3715.773 2984.502,3638" style="fill:none;stroke:white;stroke-width:25px;"/>
                </g>
            </g>
        </g>
    </g>
</svg>
