<?xml version="1.0" encoding="UTF-8" standalone="no"?>
<!DOCTYPE svg PUBLIC "-//W3C//DTD SVG 1.1//EN" "http://www.w3.org/Graphics/SVG/1.1/DTD/svg11.dtd">
<svg width="100%" height="100%" viewBox="0 0 1808 726" version="1.1" xmlns="http://www.w3.org/2000/svg" xmlns:xlink="http://www.w3.org/1999/xlink" xml:space="preserve" xmlns:serif="http://www.serif.com/" style="fill-rule:evenodd;clip-rule:evenodd;stroke-linejoin:round;stroke-miterlimit:2;">
    <g transform="matrix(1,0,0,1,-209.587367,-4077.199321)">
        <g transform="matrix(0.942761,0,0,0.809524,0,2974)">
            <g id="submark" transform="matrix(1.4526,0,0,1.724369,21.541513,-69.176471)">
                <g id="brandmark" transform="matrix(0.735042,0,0,0.721107,-173.75525,466.226918)">
                    <g transform="matrix(1.319585,0,0,1.53182,385.823953,494.833313)">
                        <g id="mark-yellow" serif:id="mark yellow">
                            <path d="M459.077,236.533C459.641,244.224 470.556,321.599 409.059,399.142C390.778,422.194 334.838,476.7 244.499,476.702C161.642,476.703 161.622,477.554 154.502,476.484C139.088,474.169 138.918,454.943 151.589,449.716C178.791,438.494 207.837,429.378 271.131,382.016C289.608,368.19 334.903,329.646 338.632,318.548C344.525,301.007 326.282,292.427 313.836,302.894C267.336,342.001 258.134,350.315 250.591,344.382C241.663,337.359 254.184,327.41 266.343,314.358C287.869,291.254 320.318,253.003 324.124,244.321C331.766,226.886 313.244,208.572 293.911,229.877C271.736,254.316 272.315,254.739 250.035,279.081C225.612,305.764 223.681,305.758 220.498,305.749C218.277,305.743 206.779,302.549 215.86,289.761C284.54,193.047 280.521,190.587 280.764,188.531C282.438,174.376 261.617,156.259 243.967,182.801C240.565,187.918 184.208,272.123 180.519,275.521C176.052,279.636 161.503,279.378 169.076,262.315C208.506,173.476 214.459,171.898 206.156,159.745C204.94,157.966 186.527,140.306 173.028,166.256C129.782,249.396 117.045,288.539 110.413,293.379C103.14,298.686 89.15,295.194 90.65,281.517C93.172,258.51 101.06,236.438 79.504,232.477C71.747,231.052 61.294,236.329 59.252,247.451C53.828,276.995 52.87,304.682 47.126,309.07C42.26,312.787 29.675,313.865 29.555,298.501C28.891,213.977 29.514,97.94 29.607,80.501C29.722,59.067 44.719,44.653 67.5,44.607C260.773,44.219 262.648,44.496 279.421,46.974C382.952,62.271 450.147,144.258 459.077,236.533Z" style="fill:rgb(236,215,84);"/>
                        </g>
                    </g>
                    <g transform="matrix(1.319585,0,0,1.53182,385.823953,465.905504)">
                        <g id="mark-light-blue" serif:id="mark light blue">
                            <path d="M459.077,236.533C459.641,244.224 470.556,321.599 409.059,399.142C390.778,422.194 334.838,476.7 244.499,476.702C161.642,476.703 161.622,477.554 154.502,476.484C139.088,474.169 138.918,454.943 151.589,449.716C178.791,438.494 207.837,429.378 271.131,382.016C289.608,368.19 334.903,329.646 338.632,318.548C344.525,301.007 326.282,292.427 313.836,302.894C267.336,342.001 258.134,350.315 250.591,344.382C241.663,337.359 254.184,327.41 266.343,314.358C287.869,291.254 320.318,253.003 324.124,244.321C331.766,226.886 313.244,208.572 293.911,229.877C271.736,254.316 272.315,254.739 250.035,279.081C225.612,305.764 223.681,305.758 220.498,305.749C218.277,305.743 206.779,302.549 215.86,289.761C284.54,193.047 280.521,190.587 280.764,188.531C282.438,174.376 261.617,156.259 243.967,182.801C240.565,187.918 184.208,272.123 180.519,275.521C176.052,279.636 161.503,279.378 169.076,262.315C208.506,173.476 214.459,171.898 206.156,159.745C204.94,157.966 186.527,140.306 173.028,166.256C129.782,249.396 117.045,288.539 110.413,293.379C103.14,298.686 89.15,295.194 90.65,281.517C93.172,258.51 101.06,236.438 79.504,232.477C71.747,231.052 61.294,236.329 59.252,247.451C53.828,276.995 52.87,304.682 47.126,309.07C42.26,312.787 29.675,313.865 29.555,298.501C28.891,213.977 29.514,97.94 29.607,80.501C29.722,59.067 44.719,44.653 67.5,44.607C260.773,44.219 262.648,44.496 279.421,46.974C382.952,62.271 450.147,144.258 459.077,236.533Z" style="fill:rgb(51,153,255);"/>
                        </g>
                    </g>
                    <g transform="matrix(1.319585,0,0,1.53182,385.823953,436.938319)">
                        <g id="mark-blue" serif:id="mark blue">
                            <path d="M459.077,236.533C459.641,244.224 470.556,321.599 409.059,399.142C390.778,422.194 334.838,476.7 244.499,476.702C161.642,476.703 161.622,477.554 154.502,476.484C139.088,474.169 138.918,454.943 151.589,449.716C178.791,438.494 207.837,429.378 271.131,382.016C289.608,368.19 334.903,329.646 338.632,318.548C344.525,301.007 326.282,292.427 313.836,302.894C267.336,342.001 258.134,350.315 250.591,344.382C241.663,337.359 254.184,327.41 266.343,314.358C287.869,291.254 320.318,253.003 324.124,244.321C331.766,226.886 313.244,208.572 293.911,229.877C271.736,254.316 272.315,254.739 250.035,279.081C225.612,305.764 223.681,305.758 220.498,305.749C218.277,305.743 206.779,302.549 215.86,289.761C284.54,193.047 280.521,190.587 280.764,188.531C282.438,174.376 261.617,156.259 243.967,182.801C240.565,187.918 184.208,272.123 180.519,275.521C176.052,279.636 161.503,279.378 169.076,262.315C208.506,173.476 214.459,171.898 206.156,159.745C204.94,157.966 186.527,140.306 173.028,166.256C129.782,249.396 117.045,288.539 110.413,293.379C103.14,298.686 89.15,295.194 90.65,281.517C93.172,258.51 101.06,236.438 79.504,232.477C71.747,231.052 61.294,236.329 59.252,247.451C53.828,276.995 52.87,304.682 47.126,309.07C42.26,312.787 29.675,313.865 29.555,298.501C28.891,213.977 29.514,97.94 29.607,80.501C29.722,59.067 44.719,44.653 67.5,44.607C260.773,44.219 262.648,44.496 279.421,46.974C382.952,62.271 450.147,144.258 459.077,236.533Z" style="fill:rgb(39,39,155);"/>
                        </g>
                    </g>
                </g>
                <g transform="matrix(2.105756,0,0,2.065837,-670.221883,117.61054)">
                    <path d="M624.483,587.75C617.319,587.75 611.655,585.667 607.49,581.502C603.325,577.337 601.243,571.673 601.243,564.51L601.243,435.315C603.076,434.982 605.991,434.524 609.989,433.941C613.988,433.358 617.819,433.066 621.484,433.066C625.316,433.066 628.69,433.358 631.605,433.941C634.52,434.524 636.978,435.565 638.977,437.065C640.976,438.564 642.475,440.646 643.475,443.312C644.474,445.977 644.974,449.476 644.974,453.807L644.974,552.515L702.199,552.515C703.366,554.347 704.449,556.805 705.448,559.887C706.448,562.969 706.947,566.176 706.947,569.508C706.947,576.171 705.531,580.878 702.699,583.626C699.867,586.375 696.119,587.75 691.454,587.75L624.483,587.75Z" style="fill:rgb(39,39,155);"/>
                    <path d="M859.132,562.261C859.132,567.425 858.216,571.257 856.383,573.756C854.55,576.255 851.635,578.67 847.637,581.003C845.304,582.335 842.389,583.626 838.891,584.876C835.392,586.125 831.56,587.208 827.396,588.125C823.231,589.041 818.858,589.749 814.276,590.249C809.695,590.748 805.155,590.998 800.657,590.998C788.662,590.998 777.417,589.374 766.922,586.125C756.426,582.877 747.305,577.962 739.558,571.382C731.812,564.801 725.689,556.596 721.191,546.767C716.693,536.938 714.444,525.526 714.444,512.532C714.444,498.871 716.901,486.96 721.816,476.797C726.731,466.635 733.228,458.181 741.308,451.433C749.387,444.686 758.633,439.647 769.046,436.315C779.458,432.983 790.162,431.317 801.157,431.317C816.983,431.317 829.52,433.858 838.766,438.939C848.012,444.02 852.635,450.642 852.635,458.805C852.635,463.137 851.552,466.885 849.386,470.05C847.22,473.216 844.721,475.715 841.889,477.547C837.724,475.048 832.518,472.591 826.271,470.175C820.024,467.76 812.985,466.552 805.155,466.552C791.161,466.552 780.041,470.55 771.794,478.547C763.548,486.543 759.425,497.622 759.425,511.782C759.425,519.446 760.549,526.068 762.798,531.649C765.047,537.23 768.088,541.811 771.919,545.393C775.751,548.975 780.166,551.64 785.164,553.389C790.162,555.139 795.493,556.013 801.157,556.013C804.822,556.013 808.071,555.68 810.903,555.014C813.735,554.347 815.9,553.598 817.4,552.765L817.4,529.275L790.661,529.275C789.662,527.442 788.704,525.027 787.788,522.028C786.871,519.029 786.413,515.864 786.413,512.532C786.413,506.535 787.788,502.203 790.536,499.538C793.285,496.872 796.825,495.539 801.157,495.539L843.389,495.539C848.386,495.539 852.26,496.914 855.009,499.663C857.757,502.411 859.132,506.285 859.132,511.283L859.132,562.261Z" style="fill:rgb(39,39,155);"/>
                    <path d="M944.595,505.785C951.592,505.785 956.965,504.161 960.713,500.912C964.461,497.664 966.336,492.707 966.336,486.044C966.336,479.713 964.378,474.84 960.463,471.425C956.548,468.01 950.842,466.302 943.346,466.302C940.68,466.302 938.473,466.344 936.723,466.427C934.974,466.51 933.183,466.719 931.351,467.052L931.351,505.785L944.595,505.785ZM931.601,586C929.768,586.5 926.894,587 922.979,587.5C919.064,588 915.191,588.249 911.359,588.249C907.528,588.249 904.154,587.958 901.239,587.375C898.323,586.792 895.866,585.751 893.867,584.251C891.868,582.752 890.368,580.669 889.369,578.004C888.369,575.338 887.869,571.84 887.869,567.508L887.869,449.809C887.869,446.311 888.827,443.603 890.743,441.688C892.659,439.772 895.283,438.231 898.615,437.065C904.279,435.065 910.735,433.608 917.981,432.692C925.228,431.775 932.517,431.317 939.847,431.317C962.837,431.317 980.413,436.232 992.574,446.061C1004.736,455.89 1010.816,469.217 1010.816,486.044C1010.816,494.207 1009.525,501.578 1006.943,508.159C1004.361,514.739 1000.529,520.404 995.448,525.152C990.367,529.9 983.953,533.565 976.206,536.147C968.46,538.729 959.505,540.02 949.343,540.02L931.601,540.02L931.601,586Z" style="fill:rgb(39,39,155);"/>
                </g>
                <g transform="matrix(0.767284,0,0,0.752738,127.454126,528.512843)">
                    <path d="M592.747,526.276C592.747,515.281 594.413,505.743 597.745,497.664C601.076,489.584 605.699,482.878 611.614,477.547C617.528,472.216 624.441,468.26 632.355,465.677C640.268,463.095 648.806,461.804 657.969,461.804C661.3,461.804 664.549,462.096 667.714,462.679C670.88,463.262 673.462,463.97 675.461,464.803L675.461,424.32C677.127,423.82 679.792,423.279 683.458,422.696C687.123,422.113 690.871,421.821 694.703,421.821C698.368,421.821 701.658,422.071 704.573,422.571C707.489,423.071 709.946,424.07 711.945,425.57C713.944,427.069 715.444,429.11 716.443,431.692C717.443,434.274 717.943,437.648 717.943,441.813L717.943,560.262C717.943,568.091 714.278,574.339 706.947,579.003C702.116,582.169 695.869,584.959 688.206,587.375C680.542,589.79 671.713,590.998 661.717,590.998C650.888,590.998 641.184,589.499 632.604,586.5C624.025,583.502 616.778,579.17 610.864,573.506C604.95,567.842 600.452,561.053 597.37,553.14C594.288,545.226 592.747,536.272 592.747,526.276ZM663.716,495.04C654.72,495.04 647.806,497.622 642.975,502.786C638.144,507.951 635.728,515.781 635.728,526.276C635.728,536.605 637.977,544.393 642.475,549.641C646.973,554.889 653.47,557.513 661.967,557.513C664.966,557.513 667.673,557.055 670.088,556.138C672.504,555.222 674.378,554.181 675.711,553.015L675.711,498.038C672.379,496.039 668.381,495.04 663.716,495.04Z" style="fill:rgb(39,39,155);"/>
                    <path d="M743.432,431.817C743.432,425.486 745.556,420.155 749.804,415.824C754.052,411.492 759.675,409.327 766.672,409.327C773.669,409.327 779.291,411.492 783.539,415.824C787.788,420.155 789.912,425.486 789.912,431.817C789.912,438.147 787.788,443.479 783.539,447.81C779.291,452.141 773.669,454.307 766.672,454.307C759.675,454.307 754.052,452.141 749.804,447.81C745.556,443.479 743.432,438.147 743.432,431.817ZM787.913,586.75C786.08,587.083 783.373,587.541 779.791,588.125C776.209,588.708 772.586,588.999 768.921,588.999C765.256,588.999 761.965,588.749 759.05,588.249C756.135,587.75 753.677,586.75 751.678,585.251C749.679,583.751 748.138,581.711 747.055,579.128C745.972,576.546 745.431,573.173 745.431,569.008L745.431,467.302C747.263,466.968 749.971,466.51 753.552,465.927C757.134,465.344 760.758,465.053 764.423,465.053C768.088,465.053 771.378,465.302 774.293,465.802C777.209,466.302 779.666,467.302 781.665,468.801C783.664,470.3 785.205,472.341 786.288,474.923C787.371,477.506 787.913,480.879 787.913,485.044L787.913,586.75Z" style="fill:rgb(39,39,155);"/>
                    <path d="M883.371,495.29C879.207,495.29 875.25,495.956 871.502,497.289C867.753,498.621 864.505,500.579 861.756,503.161C859.007,505.743 856.8,508.95 855.134,512.782C853.468,516.614 852.635,521.112 852.635,526.276C852.635,536.605 855.592,544.352 861.506,549.516C867.42,554.681 874.625,557.263 883.122,557.263C888.119,557.263 892.451,556.68 896.116,555.514C899.781,554.347 903.03,553.098 905.862,551.765C909.194,554.098 911.693,556.638 913.358,559.387C915.024,562.136 915.857,565.426 915.857,569.258C915.857,576.088 912.609,581.377 906.112,585.126C899.614,588.874 890.618,590.748 879.123,590.748C868.628,590.748 859.132,589.207 850.636,586.125C842.139,583.043 834.851,578.712 828.77,573.131C822.689,567.55 817.983,560.845 814.651,553.015C811.319,545.185 809.653,536.522 809.653,527.026C809.653,516.031 811.444,506.41 815.026,498.163C818.608,489.917 823.481,483.128 829.645,477.797C835.809,472.466 842.93,468.468 851.01,465.802C859.09,463.137 867.628,461.804 876.624,461.804C888.619,461.804 897.865,463.97 904.362,468.301C910.86,472.633 914.108,478.214 914.108,485.044C914.108,488.209 913.358,491.166 911.859,493.915C910.36,496.664 908.611,499.038 906.611,501.037C903.779,499.704 900.364,498.413 896.366,497.164C892.368,495.914 888.036,495.29 883.371,495.29Z" style="fill:rgb(39,39,155);"/>
                    <path d="M936.099,431.817C936.099,425.486 938.223,420.155 942.471,415.824C946.719,411.492 952.342,409.327 959.339,409.327C966.336,409.327 971.958,411.492 976.206,415.824C980.455,420.155 982.579,425.486 982.579,431.817C982.579,438.147 980.455,443.479 976.206,447.81C971.958,452.141 966.336,454.307 959.339,454.307C952.342,454.307 946.719,452.141 942.471,447.81C938.223,443.479 936.099,438.147 936.099,431.817ZM980.58,586.75C978.747,587.083 976.04,587.541 972.458,588.125C968.876,588.708 965.253,588.999 961.588,588.999C957.923,588.999 954.632,588.749 951.717,588.249C948.802,587.75 946.344,586.75 944.345,585.251C942.346,583.751 940.805,581.711 939.722,579.128C938.639,576.546 938.098,573.173 938.098,569.008L938.098,467.302C939.93,466.968 942.638,466.51 946.219,465.927C949.801,465.344 953.425,465.053 957.09,465.053C960.755,465.053 964.045,465.302 966.96,465.802C969.876,466.302 972.333,467.302 974.332,468.801C976.331,470.3 977.872,472.341 978.955,474.923C980.038,477.506 980.58,480.879 980.58,485.044L980.58,586.75Z" style="fill:rgb(39,39,155);"/>
                    <path d="M1133.264,526.276C1133.264,536.605 1131.681,545.809 1128.516,553.889C1125.35,561.969 1120.894,568.758 1115.147,574.255C1109.399,579.753 1102.527,583.918 1094.53,586.75C1086.534,589.582 1077.621,590.998 1067.792,590.998C1057.963,590.998 1049.05,589.499 1041.053,586.5C1033.057,583.502 1026.185,579.212 1020.437,573.631C1014.69,568.05 1010.233,561.261 1007.068,553.265C1003.903,545.268 1002.32,536.272 1002.32,526.276C1002.32,516.447 1003.903,507.534 1007.068,499.538C1010.233,491.541 1014.69,484.752 1020.437,479.171C1026.185,473.591 1033.057,469.301 1041.053,466.302C1049.05,463.303 1057.963,461.804 1067.792,461.804C1077.621,461.804 1086.534,463.345 1094.53,466.427C1102.527,469.509 1109.399,473.84 1115.147,479.421C1120.894,485.002 1125.35,491.791 1128.516,499.788C1131.681,507.784 1133.264,516.614 1133.264,526.276ZM1045.801,526.276C1045.801,536.438 1047.759,544.227 1051.674,549.641C1055.589,555.055 1061.045,557.763 1068.042,557.763C1075.039,557.763 1080.411,555.014 1084.16,549.516C1087.908,544.019 1089.782,536.272 1089.782,526.276C1089.782,516.28 1087.867,508.575 1084.035,503.161C1080.203,497.747 1074.789,495.04 1067.792,495.04C1060.795,495.04 1055.381,497.747 1051.549,503.161C1047.717,508.575 1045.801,516.28 1045.801,526.276Z" style="fill:rgb(39,39,155);"/>
                    <path d="M1230.972,510.033C1230.972,504.869 1229.514,501.079 1226.598,498.663C1223.683,496.247 1219.726,495.04 1214.729,495.04C1211.397,495.04 1208.106,495.456 1204.858,496.289C1201.609,497.122 1198.819,498.372 1196.486,500.037L1196.486,586.75C1194.821,587.25 1192.197,587.75 1188.615,588.249C1185.033,588.749 1181.326,588.999 1177.495,588.999C1173.83,588.999 1170.539,588.749 1167.624,588.249C1164.708,587.75 1162.251,586.75 1160.252,585.251C1158.253,583.751 1156.712,581.711 1155.629,579.128C1154.546,576.546 1154.005,573.173 1154.005,569.008L1154.005,494.04C1154.005,489.542 1154.963,485.877 1156.879,483.045C1158.794,480.213 1161.418,477.63 1164.75,475.298C1170.414,471.3 1177.536,468.051 1186.116,465.552C1194.696,463.053 1204.233,461.804 1214.729,461.804C1233.554,461.804 1248.048,465.927 1258.21,474.174C1268.372,482.42 1273.453,493.873 1273.453,508.534L1273.453,586.75C1271.787,587.25 1269.163,587.75 1265.582,588.249C1262,588.749 1258.293,588.999 1254.461,588.999C1250.796,588.999 1247.506,588.749 1244.591,588.249C1241.675,587.75 1239.218,586.75 1237.219,585.251C1235.22,583.751 1233.679,581.711 1232.596,579.128C1231.513,576.546 1230.972,573.173 1230.972,569.008L1230.972,510.033Z" style="fill:rgb(39,39,155);"/>
                    <path d="M1351.67,560.012C1354.502,560.012 1357.625,559.72 1361.041,559.137C1364.456,558.554 1366.996,557.763 1368.662,556.763L1368.662,536.772L1350.67,538.271C1346.005,538.604 1342.174,539.604 1339.175,541.27C1336.176,542.936 1334.677,545.435 1334.677,548.766C1334.677,552.098 1335.968,554.806 1338.55,556.888C1341.132,558.97 1345.506,560.012 1351.67,560.012ZM1349.67,461.804C1358.667,461.804 1366.871,462.72 1374.285,464.553C1381.698,466.385 1388.029,469.176 1393.277,472.924C1398.524,476.673 1402.564,481.421 1405.396,487.168C1408.229,492.916 1409.645,499.704 1409.645,507.534L1409.645,563.51C1409.645,567.842 1408.437,571.382 1406.021,574.131C1403.606,576.879 1400.732,579.253 1397.4,581.252C1386.571,587.75 1371.328,590.998 1351.67,590.998C1342.84,590.998 1334.885,590.165 1327.805,588.499C1320.725,586.833 1314.644,584.334 1309.563,581.003C1304.482,577.671 1300.567,573.423 1297.818,568.258C1295.069,563.094 1293.695,557.096 1293.695,550.266C1293.695,538.771 1297.11,529.941 1303.94,523.777C1310.771,517.613 1321.349,513.782 1335.676,512.282L1368.412,508.784L1368.412,507.034C1368.412,502.203 1366.288,498.746 1362.04,496.664C1357.792,494.581 1351.67,493.54 1343.673,493.54C1337.342,493.54 1331.178,494.207 1325.181,495.539C1319.184,496.872 1313.769,498.538 1308.938,500.537C1306.772,499.038 1304.94,496.747 1303.44,493.665C1301.941,490.583 1301.191,487.376 1301.191,484.044C1301.191,479.713 1302.233,476.256 1304.315,473.674C1306.397,471.092 1309.604,468.884 1313.936,467.052C1318.767,465.219 1324.473,463.886 1331.053,463.053C1337.634,462.22 1343.84,461.804 1349.67,461.804ZM1358.667,401.08C1367.329,401.08 1373.618,402.746 1377.533,406.078C1381.448,409.41 1383.406,413.408 1383.406,418.073C1383.406,422.404 1382.24,426.028 1379.907,428.943C1377.575,431.859 1373.743,434.732 1368.412,437.564L1336.176,454.557C1331.178,454.057 1326.93,452.058 1323.432,448.56C1319.933,445.061 1318.184,441.313 1318.184,437.315C1318.184,435.315 1318.684,433.316 1319.683,431.317C1320.683,429.318 1322.349,427.485 1324.681,425.819L1358.667,401.08Z" style="fill:rgb(39,39,155);"/>
                    <path d="M1478.115,586.75C1476.449,587.25 1473.825,587.75 1470.243,588.249C1466.662,588.749 1462.955,588.999 1459.123,588.999C1455.458,588.999 1452.168,588.749 1449.253,588.249C1446.337,587.75 1443.88,586.75 1441.881,585.251C1439.882,583.751 1438.341,581.711 1437.258,579.128C1436.175,576.546 1435.633,573.173 1435.633,569.008L1435.633,494.04C1435.633,490.208 1436.341,486.918 1437.757,484.169C1439.174,481.421 1441.214,478.963 1443.88,476.797C1446.545,474.632 1449.836,472.674 1453.751,470.925C1457.666,469.176 1461.872,467.635 1466.37,466.302C1470.868,464.969 1475.533,463.928 1480.364,463.178C1485.195,462.429 1490.027,462.054 1494.858,462.054C1502.854,462.054 1509.185,463.595 1513.85,466.677C1518.514,469.759 1520.847,474.798 1520.847,481.795C1520.847,484.128 1520.513,486.418 1519.847,488.667C1519.181,490.916 1518.348,492.957 1517.348,494.79C1513.85,494.79 1510.268,494.956 1506.603,495.29C1502.938,495.623 1499.356,496.123 1495.857,496.789C1492.359,497.455 1489.069,498.163 1485.987,498.913C1482.905,499.663 1480.281,500.537 1478.115,501.537L1478.115,586.75Z" style="fill:rgb(39,39,155);"/>
                    <path d="M1537.34,431.817C1537.34,425.486 1539.464,420.155 1543.712,415.824C1547.96,411.492 1553.583,409.327 1560.58,409.327C1567.577,409.327 1573.199,411.492 1577.447,415.824C1581.695,420.155 1583.82,425.486 1583.82,431.817C1583.82,438.147 1581.695,443.479 1577.447,447.81C1573.199,452.141 1567.577,454.307 1560.58,454.307C1553.583,454.307 1547.96,452.141 1543.712,447.81C1539.464,443.479 1537.34,438.147 1537.34,431.817ZM1581.82,586.75C1579.988,587.083 1577.281,587.541 1573.699,588.125C1570.117,588.708 1566.494,588.999 1562.829,588.999C1559.163,588.999 1555.873,588.749 1552.958,588.249C1550.042,587.75 1547.585,586.75 1545.586,585.251C1543.587,583.751 1542.046,581.711 1540.963,579.128C1539.88,576.546 1539.339,573.173 1539.339,569.008L1539.339,467.302C1541.171,466.968 1543.878,466.51 1547.46,465.927C1551.042,465.344 1554.665,465.053 1558.33,465.053C1561.996,465.053 1565.286,465.302 1568.201,465.802C1571.117,466.302 1573.574,467.302 1575.573,468.801C1577.572,470.3 1579.113,472.341 1580.196,474.923C1581.279,477.506 1581.82,480.879 1581.82,485.044L1581.82,586.75Z" style="fill:rgb(39,39,155);"/>
                    <path d="M1734.505,526.276C1734.505,536.605 1732.922,545.809 1729.757,553.889C1726.591,561.969 1722.135,568.758 1716.387,574.255C1710.64,579.753 1703.768,583.918 1695.771,586.75C1687.775,589.582 1678.862,590.998 1669.033,590.998C1659.204,590.998 1650.291,589.499 1642.294,586.5C1634.298,583.502 1627.426,579.212 1621.678,573.631C1615.931,568.05 1611.474,561.261 1608.309,553.265C1605.144,545.268 1603.561,536.272 1603.561,526.276C1603.561,516.447 1605.144,507.534 1608.309,499.538C1611.474,491.541 1615.931,484.752 1621.678,479.171C1627.426,473.591 1634.298,469.301 1642.294,466.302C1650.291,463.303 1659.204,461.804 1669.033,461.804C1678.862,461.804 1687.775,463.345 1695.771,466.427C1703.768,469.509 1710.64,473.84 1716.387,479.421C1722.135,485.002 1726.591,491.791 1729.757,499.788C1732.922,507.784 1734.505,516.614 1734.505,526.276ZM1647.042,526.276C1647.042,536.438 1649,544.227 1652.915,549.641C1656.83,555.055 1662.286,557.763 1669.283,557.763C1676.28,557.763 1681.652,555.014 1685.401,549.516C1689.149,544.019 1691.023,536.272 1691.023,526.276C1691.023,516.28 1689.107,508.575 1685.276,503.161C1681.444,497.747 1676.03,495.04 1669.033,495.04C1662.036,495.04 1656.621,497.747 1652.79,503.161C1648.958,508.575 1647.042,516.28 1647.042,526.276Z" style="fill:rgb(39,39,155);"/>
                </g>
            </g>
        </g>
    </g>
</svg>
